# xmcd
#
# Track frame offsets: 
#        150
#        21016
#        40285
#        66774
#        93130
#        118992
#        144149
#        171357
#        194910
#        220723
#
# Disc length: 3264 seconds
#
# Revision: 1
# Processed by: cddbd v1.5.2PL0 Copyright (c) Steve Scherf et al.
# Submitted via: ExactAudioCopyFreeDBPlugin 1.0
#
DISCID=8e0cbe0a
DTITLE=Александр Александрович Волгин и Неопознанный летающий оркестр 
DTITLE=/ Отчёт эксгуматора
DYEAR=2001
DGENRE=Blues
TTITLE0=Отчет эксгуматора
TTITLE1=Ортопедические аспекты любви
TTITLE2=Вперед, на пиво
TTITLE3=Я - змея
TTITLE4="Дружба" (народная песня)
TTITLE5=Два паравоза
TTITLE6=Я и мое тело
TTITLE7=Два-три слова, мама
TTITLE8=Мои любимые вещи
TTITLE9=Полночный парик
EXTD=
EXTT0=
EXTT1=
EXTT2=
EXTT3=
EXTT4=
EXTT5=
EXTT6=
EXTT7=
EXTT8=
EXTT9=
PLAYORDER=
